<svg xmlns="http://www.w3.org/2000/svg" viewBox="0 0 512 512" width="512" height="512">
  <!-- Background -->
  <rect width="512" height="512" rx="96" fill="#0f172a"/>

  <!-- Calculator body -->
  <rect x="112" y="80" width="288" height="352" rx="28" fill="#1e293b" stroke="#334155" stroke-width="6"/>

  <!-- Display screen -->
  <rect x="140" y="112" width="232" height="88" rx="12" fill="#0ea5e9"/>
  <text x="356" y="188" font-family="'Courier New', monospace" font-size="52" font-weight="700" fill="#ffffff" text-anchor="end">0</text>

  <!-- Button grid: row 1 (light blue) -->
  <rect x="140" y="222" width="64" height="44" rx="10" fill="#334155"/>
  <text x="172" y="252" font-family="Arial, sans-serif" font-size="22" font-weight="600" fill="#94a3b8" text-anchor="middle">C</text>

  <rect x="220" y="222" width="64" height="44" rx="10" fill="#334155"/>
  <text x="252" y="252" font-family="Arial, sans-serif" font-size="22" font-weight="600" fill="#94a3b8" text-anchor="middle">±</text>

  <rect x="300" y="222" width="64" height="44" rx="10" fill="#334155"/>
  <text x="332" y="252" font-family="Arial, sans-serif" font-size="22" font-weight="600" fill="#94a3b8" text-anchor="middle">%</text>

  <rect x="380" y="222" width="52" height="44" rx="10" fill="#0ea5e9"/>
  <text x="406" y="252" font-family="Arial, sans-serif" font-size="24" font-weight="700" fill="#ffffff" text-anchor="middle">÷</text>

  <!-- Button grid: row 2 -->
  <rect x="140" y="280" width="64" height="44" rx="10" fill="#475569"/>
  <text x="172" y="310" font-family="Arial, sans-serif" font-size="22" font-weight="600" fill="#f1f5f9" text-anchor="middle">7</text>

  <rect x="220" y="280" width="64" height="44" rx="10" fill="#475569"/>
  <text x="252" y="310" font-family="Arial, sans-serif" font-size="22" font-weight="600" fill="#f1f5f9" text-anchor="middle">8</text>

  <rect x="300" y="280" width="64" height="44" rx="10" fill="#475569"/>
  <text x="332" y="310" font-family="Arial, sans-serif" font-size="22" font-weight="600" fill="#f1f5f9" text-anchor="middle">9</text>

  <rect x="380" y="280" width="52" height="44" rx="10" fill="#0ea5e9"/>
  <text x="406" y="310" font-family="Arial, sans-serif" font-size="24" font-weight="700" fill="#ffffff" text-anchor="middle">×</text>

  <!-- Button grid: row 3 -->
  <rect x="140" y="338" width="64" height="44" rx="10" fill="#475569"/>
  <text x="172" y="368" font-family="Arial, sans-serif" font-size="22" font-weight="600" fill="#f1f5f9" text-anchor="middle">4</text>

  <rect x="220" y="338" width="64" height="44" rx="10" fill="#475569"/>
  <text x="252" y="368" font-family="Arial, sans-serif" font-size="22" font-weight="600" fill="#f1f5f9" text-anchor="middle">5</text>

  <rect x="300" y="338" width="64" height="44" rx="10" fill="#475569"/>
  <text x="332" y="368" font-family="Arial, sans-serif" font-size="22" font-weight="600" fill="#f1f5f9" text-anchor="middle">6</text>

  <rect x="380" y="338" width="52" height="44" rx="10" fill="#0ea5e9"/>
  <text x="406" y="368" font-family="Arial, sans-serif" font-size="24" font-weight="700" fill="#ffffff" text-anchor="middle">−</text>

  <!-- Button grid: row 4 -->
  <rect x="140" y="396" width="64" height="36" rx="10" fill="#475569"/>
  <text x="172" y="421" font-family="Arial, sans-serif" font-size="22" font-weight="600" fill="#f1f5f9" text-anchor="middle">1</text>

  <rect x="220" y="396" width="64" height="36" rx="10" fill="#475569"/>
  <text x="252" y="421" font-family="Arial, sans-serif" font-size="22" font-weight="600" fill="#f1f5f9" text-anchor="middle">2</text>

  <rect x="300" y="396" width="64" height="36" rx="10" fill="#475569"/>
  <text x="332" y="421" font-family="Arial, sans-serif" font-size="22" font-weight="600" fill="#f1f5f9" text-anchor="middle">3</text>

  <rect x="380" y="396" width="52" height="36" rx="10" fill="#0ea5e9"/>
  <text x="406" y="421" font-family="Arial, sans-serif" font-size="24" font-weight="700" fill="#ffffff" text-anchor="middle">+</text>
</svg>
